<svg width="121" height="57" viewBox="0 0 121 57" fill="none" xmlns="http://www.w3.org/2000/svg">
<path d="M84.4631 43H95.0009" stroke="black" stroke-width="2" stroke-linecap="round" stroke-linejoin="round"/>
<path d="M89.7319 9V19" stroke="black" stroke-width="2" stroke-linecap="round" stroke-linejoin="round"/>
<path d="M84.4631 14H95.0009" stroke="black" stroke-width="2" stroke-linecap="round" stroke-linejoin="round"/>
<line x1="59.6726" y1="1" x2="59.6726" y2="57" stroke="black"/>
<path d="M26.896 27.1914H28.5835C29.2397 27.1914 29.7827 27.0781 30.2124 26.8516C30.6499 26.625 30.9741 26.3125 31.1851 25.9141C31.396 25.5156 31.5015 25.0586 31.5015 24.543C31.5015 24.0039 31.4038 23.543 31.2085 23.1602C31.021 22.7695 30.7319 22.4688 30.3413 22.2578C29.9585 22.0469 29.4702 21.9414 28.8765 21.9414C28.3765 21.9414 27.9233 22.043 27.5171 22.2461C27.1187 22.4414 26.8022 22.7227 26.5679 23.0898C26.3335 23.4492 26.2163 23.8789 26.2163 24.3789H23.3804C23.3804 23.4727 23.6187 22.668 24.0952 21.9648C24.5718 21.2617 25.2202 20.7109 26.0405 20.3125C26.8687 19.9062 27.7983 19.7031 28.8296 19.7031C29.9312 19.7031 30.8921 19.8867 31.7124 20.2539C32.5405 20.6133 33.1851 21.1523 33.646 21.8711C34.1069 22.5898 34.3374 23.4805 34.3374 24.543C34.3374 25.0273 34.2241 25.5195 33.9976 26.0195C33.771 26.5195 33.4351 26.9766 32.9897 27.3906C32.5444 27.7969 31.9897 28.1289 31.3257 28.3867C30.6616 28.6367 29.8921 28.7617 29.0171 28.7617H26.896V27.1914ZM26.896 29.3945V27.8477H29.0171C30.0171 27.8477 30.8687 27.9648 31.5718 28.1992C32.2827 28.4336 32.8608 28.7578 33.3062 29.1719C33.7515 29.5781 34.0757 30.043 34.2788 30.5664C34.4897 31.0898 34.5952 31.6445 34.5952 32.2305C34.5952 33.0273 34.4507 33.7383 34.1616 34.3633C33.8804 34.9805 33.478 35.5039 32.9546 35.9336C32.4312 36.3633 31.8179 36.6875 31.1147 36.9062C30.4194 37.125 29.6616 37.2344 28.8413 37.2344C28.1069 37.2344 27.4038 37.1328 26.7319 36.9297C26.0601 36.7266 25.4585 36.4258 24.9272 36.0273C24.396 35.6211 23.9741 35.1172 23.6616 34.5156C23.3569 33.9062 23.2046 33.2031 23.2046 32.4062H26.0288C26.0288 32.9141 26.146 33.3633 26.3804 33.7539C26.6226 34.1367 26.9585 34.4375 27.3882 34.6562C27.8257 34.875 28.3257 34.9844 28.8882 34.9844C29.4819 34.9844 29.9937 34.8789 30.4233 34.668C30.853 34.457 31.1812 34.1445 31.4077 33.7305C31.6421 33.3164 31.7593 32.8164 31.7593 32.2305C31.7593 31.5664 31.6304 31.0273 31.3726 30.6133C31.1147 30.1992 30.7476 29.8945 30.271 29.6992C29.7944 29.4961 29.2319 29.3945 28.5835 29.3945H26.896Z" fill="#0C0D0C"/>
<path d="M59.1726 28.5H120.291" stroke="black"/>
<rect x="0.661377" y="0.5" width="119.13" height="56" rx="1.5" stroke="black"/>
</svg>
