<svg width="121" height="57" viewBox="0 0 121 57" fill="none" xmlns="http://www.w3.org/2000/svg">
<path d="M84.542 43H95.0797" stroke="black" stroke-width="2" stroke-linecap="round" stroke-linejoin="round"/>
<path d="M89.811 9V19" stroke="black" stroke-width="2" stroke-linecap="round" stroke-linejoin="round"/>
<path d="M84.542 14H95.0797" stroke="black" stroke-width="2" stroke-linecap="round" stroke-linejoin="round"/>
<line x1="59.7515" y1="1" x2="59.7515" y2="57" stroke="black"/>
<path d="M59.2515 28.5H120.37" stroke="black"/>
<path d="M35.0959 34.75V37H23.6584V35.0664L29.2131 29.0078C29.8225 28.3203 30.303 27.7266 30.6545 27.2266C31.0061 26.7266 31.2522 26.2773 31.3928 25.8789C31.5413 25.4727 31.6155 25.0781 31.6155 24.6953C31.6155 24.1562 31.5139 23.6836 31.3108 23.2773C31.1155 22.8633 30.8264 22.5391 30.4436 22.3047C30.0608 22.0625 29.5959 21.9414 29.0491 21.9414C28.4163 21.9414 27.885 22.0781 27.4553 22.3516C27.0256 22.625 26.7014 23.0039 26.4827 23.4883C26.2639 23.9648 26.1545 24.5117 26.1545 25.1289H23.3303C23.3303 24.1367 23.5569 23.2305 24.01 22.4102C24.4631 21.582 25.1194 20.9258 25.9788 20.4414C26.8381 19.9492 27.8733 19.7031 29.0842 19.7031C30.2249 19.7031 31.1936 19.8945 31.9905 20.2773C32.7874 20.6602 33.3928 21.2031 33.8069 21.9062C34.2288 22.6094 34.4397 23.4414 34.4397 24.4023C34.4397 24.9336 34.3538 25.4609 34.1819 25.9844C34.01 26.5078 33.7639 27.0312 33.4436 27.5547C33.1311 28.0703 32.76 28.5898 32.3303 29.1133C31.9006 29.6289 31.428 30.1523 30.9124 30.6836L27.2209 34.75H35.0959Z" fill="#0C0D0C"/>
<rect x="0.740234" y="0.5" width="119.13" height="56" rx="1.5" stroke="black"/>
</svg>
